<?xml version="1.0" encoding="utf-8"?>
<!-- Generator: Adobe Illustrator 24.1.0, SVG Export Plug-In . SVG Version: 6.00 Build 0)  -->
<svg version="1.1" id="Layer_1" xmlns="http://www.w3.org/2000/svg" xmlns:xlink="http://www.w3.org/1999/xlink" x="0px" y="0px"
	 viewBox="0 0 841.9 595.3" style="enable-background:new 0 0 841.9 595.3;" xml:space="preserve">
<style type="text/css">
	.st0{fill:#F26726;}
	.st1{fill:#F26929;}
</style>
<g id="XPiPuW_1_">
	<g>
		<path class="st0" d="M473.5,259c-0.2,4.2-1.4,11.7-2.4,14c-11.1,25.8,5.8,36.3,23.2,51.8c15.8,14,30,29.9,45.1,44.7
			c6.6,6.5,11,13.4,10.7,23.5c-0.3,11.8,1.2,25.7-12.2,29.3c-13.5,3.7-29,6.3-41.3-6.3c-20.7-21.1-42-41.6-62.5-62.7
			c-7.7-8-14.2-11-26.5-7.7c-47.6,12.6-93.8-16.6-105.7-64.8c-11.3-46.1,18.1-92.9,65.2-103.9c46.6-10.9,93.1,17.8,104.5,64.7
			C473,247.8,473,254.3,473.5,259z M449.9,263.1c0.6-35.6-26.3-64.4-61.5-65.6c-34-1.2-64.5,27.7-65.6,62.2
			c-1.1,34.7,27.2,64.2,62.2,64.9C420.9,325.3,449.3,298.4,449.9,263.1z"/>
		<path class="st1" d="M391.2,218.8c19.7,0.6,39.5,21.2,39.1,40.2c-0.1,7.5-3.5,12.7-10.5,13.8c-6.4,1.1-11.6-3-12.4-9.3
			c-1.7-13.4-9.2-20.1-22-22.5c-7.3-1.4-10.9-6.5-9.2-14.1C377.9,218.7,384.6,218.6,391.2,218.8z"/>
	</g>
</g>
</svg>
